<svg width="27" height="27" fill="none" xmlns="http://www.w3.org/2000/svg"><path fill-rule="evenodd" clip-rule="evenodd" d="M13.5.248c-7.18 0-13 5.82-13 13s5.82 13 13 13 13-5.82 13-13-5.82-13-13-13zm-2.859 6.108c.74-.033.976-.042 2.859-.042h-.002c1.883 0 2.119.009 2.858.042.738.034 1.243.15 1.685.322a3.39 3.39 0 011.227.8c.386.385.623.772.8 1.228.171.44.288.945.323 1.683.033.74.042.976.042 2.859s-.01 2.119-.042 2.858c-.035.738-.152 1.242-.322 1.683a3.405 3.405 0 01-.8 1.228 3.392 3.392 0 01-1.228.8c-.441.172-.945.288-1.684.322-.74.034-.975.042-2.858.042s-2.119-.008-2.859-.042c-.738-.034-1.242-.15-1.683-.322a3.395 3.395 0 01-1.227-.8 3.398 3.398 0 01-.8-1.228c-.171-.441-.288-.945-.322-1.683-.034-.74-.042-.975-.042-2.858s.009-2.12.042-2.86c.033-.737.15-1.241.322-1.682.177-.456.414-.843.8-1.228a3.395 3.395 0 011.228-.8c.441-.171.945-.288 1.683-.322z" fill="#23B6F5"/><path fill-rule="evenodd" clip-rule="evenodd" d="M12.879 7.564h.622c1.85 0 2.07.007 2.801.04.676.03 1.043.144 1.288.239.323.125.554.275.796.518.243.243.393.474.52.797.094.245.207.611.238 1.287.033.731.04.95.04 2.801 0 1.85-.007 2.07-.04 2.801-.031.676-.144 1.043-.239 1.287a2.143 2.143 0 01-.519.797 2.144 2.144 0 01-.796.518c-.244.095-.612.208-1.288.239-.73.033-.95.04-2.801.04-1.852 0-2.071-.007-2.802-.04-.676-.031-1.043-.144-1.288-.24a2.147 2.147 0 01-.797-.518 2.15 2.15 0 01-.519-.796c-.095-.245-.208-.611-.238-1.287-.034-.731-.04-.951-.04-2.803 0-1.851.006-2.07.04-2.8.03-.676.143-1.043.238-1.288.126-.323.276-.554.52-.797.242-.243.473-.393.796-.519.245-.095.612-.208 1.288-.239.64-.029.887-.037 2.18-.039v.002zm4.32 1.15a.832.832 0 100 1.665.832.832 0 000-1.665zm-7.257 4.534a3.56 3.56 0 117.121 0 3.56 3.56 0 01-7.121 0z" fill="#23B6F5"/><path d="M13.499 10.936a2.311 2.311 0 110 4.622 2.311 2.311 0 010-4.622z" fill="#23B6F5"/></svg>