<svg width="17" height="16" fill="none" xmlns="http://www.w3.org/2000/svg"><path fill-rule="evenodd" clip-rule="evenodd" d="M.856 11.753c.401-.218 2.348-1.235 2.705-1.38.371-.145.639-.232.921.16.283.378 1.085 1.25 1.338 1.496.238.262.475.276.877.073.4-.218 1.679-.683 3.165-2.078a11.485 11.485 0 002.14-2.818c.223-.407 0-.61-.208-.8-.178-.173-.416-.45-.624-.667-.208-.218-.282-.378-.43-.64-.15-.261-.09-.494 0-.697.103-.203.831-2.165 1.143-2.978.298-.8.64-.683.877-.683.238-.015.506-.058.773-.058.268-.015.714.073 1.1.45.386.378 1.457 1.293 1.53 3.24.075 1.932-1.292 3.864-1.485 4.14-.194.262-2.631 4.475-6.674 6.204-4.042 1.729-4.057 1.206-4.8 1.162-.743-.029-2.423-.857-2.794-1.772-.372-.9-.401-1.7-.312-1.86.089-.174.356-.276.758-.494z" fill="#4DC0FF"/></svg>