<svg width="13" height="13" fill="none" xmlns="http://www.w3.org/2000/svg"><path d="M12.518 11.308l-2.13-2.115a5.344 5.344 0 00-.424-7.073A5.311 5.311 0 006.184.56a5.31 5.31 0 00-3.779 1.56A5.304 5.304 0 00.844 5.897c0 1.43.555 2.77 1.561 3.777a5.311 5.311 0 003.78 1.56 5.27 5.27 0 003.283-1.138l2.116 2.145a.64.64 0 00.467.19.702.702 0 00.467-.19.65.65 0 000-.933zm-2.306-5.411A3.99 3.99 0 019.03 8.74a4.02 4.02 0 01-5.691 0 4.017 4.017 0 01-1.182-2.844 3.99 3.99 0 011.182-2.844A4.022 4.022 0 016.185 1.87c1.08 0 2.087.423 2.845 1.182a3.994 3.994 0 011.183 2.844z" fill="#23B6F5"/></svg>