<svg width="16" height="17" fill="none" xmlns="http://www.w3.org/2000/svg"><path d="M13.531 1.676c-.592-.507-1.287-.815-2.028-1.008A14.494 14.494 0 005.82.32c-.97.131-1.91.388-2.77.872-1.014.57-1.715 1.384-2.022 2.523A11.673 11.673 0 00.664 6.18C.601 7.416.641 8.64.954 9.843c.365 1.39 1.162 2.415 2.518 2.962.148.057.29.142.439.199.136.057.176.148.176.296-.005.963-.005 1.925-.005 2.928.358-.342.603-.598.786-.798.535-.603 1.042-1.11 1.6-1.686.28-.29.165-.279.604-.267.512.005 1.327.028 1.84-.012.98-.08 1.953-.205 2.899-.49 1.196-.358 2.159-1.002 2.648-2.215.131-.325.251-.644.336-.986.467-1.93.405-3.867.012-5.798-.182-.9-.564-1.697-1.276-2.301zm-5.97 1.167c.012-.188.12-.256.297-.25 1.487.074 2.609.518 3.474 1.68.507.678.78 1.6.803 2.455 0 .125.006.25 0 .376-.005.142-.068.25-.227.25-.16.006-.24-.085-.251-.244a5.753 5.753 0 00-.404-1.829c-.467-1.133-1.356-1.743-2.507-2.039a5.602 5.602 0 00-.922-.17c-.143-.012-.268-.04-.262-.229zm1.504 1.584a5.168 5.168 0 00-.928-.24c-.154-.022-.262-.102-.234-.284.029-.165.137-.234.302-.222 1.037.102 1.851.478 2.41 1.384.262.421.415 1.014.393 1.464-.017.319-.063.398-.245.393-.262-.006-.228-.222-.245-.382a5.11 5.11 0 00-.154-.723c-.188-.69-.62-1.15-1.299-1.39zm.883 1.754c-.011.091-.011.148-.023.205-.028.12-.102.188-.227.188-.126.006-.194-.068-.228-.182-.023-.074-.029-.154-.046-.234-.08-.421-.319-.694-.74-.808-.051-.012-.103-.017-.154-.035-.131-.034-.296-.04-.302-.233 0-.16.12-.25.336-.268.148-.005.382.069.513.131.547.268.803.644.871 1.236zm2.193 4.42a2.202 2.202 0 01-1.475 1.282c-.25.068-.496.011-.723-.086-3.156-1.344-5.434-3.56-6.727-6.76a1.672 1.672 0 01-.137-.69c0-.826.723-1.583 1.515-1.629a.745.745 0 01.564.21 5.903 5.903 0 011.333 1.818c.176.37.102.632-.217.9a1.454 1.454 0 01-.159.12c-.427.313-.518.632-.319 1.116a4.093 4.093 0 001.606 1.902c.28.171.558.342.877.433.29.086.524-.006.712-.233.017-.029.04-.057.057-.08.41-.564.843-.66 1.436-.296.5.313.98.672 1.435 1.053.302.262.382.57.222.94z" fill="#00E741"/></svg>