<svg width="25" height="24" fill="none" xmlns="http://www.w3.org/2000/svg"><path d="M19.009 23.718H5.989a5.174 5.174 0 01-3.682-1.525A5.174 5.174 0 01.78 18.51v-1.302a1.302 1.302 0 012.604 0v1.302c0 .696.271 1.35.763 1.842a2.587 2.587 0 001.841.762h13.02c.695 0 1.349-.27 1.84-.762a2.587 2.587 0 00.763-1.842v-1.302a1.302 1.302 0 012.604 0v1.302a5.174 5.174 0 01-1.525 3.683 5.174 5.174 0 01-3.682 1.525zm-6.51-5.208a1.3 1.3 0 01-.91-.37l-.002-.003h-.001l-.002-.002-.002-.002-.001-.001-.003-.003-5.208-5.208a1.302 1.302 0 111.842-1.84l2.985 2.984V1.585a1.302 1.302 0 112.604 0v12.48l2.985-2.985a1.302 1.302 0 111.841 1.841L13.42 18.13l-.003.003v.001l-.002.002-.002.002h-.001l-.003.003a1.295 1.295 0 01-.402.268h-.001l-.002.001c-.16.067-.331.102-.504.101z" fill="#23B6F5"/></svg>