<svg width="27" height="27" fill="none" xmlns="http://www.w3.org/2000/svg"><path fill-rule="evenodd" clip-rule="evenodd" d="M26.5 13.254c0 7.176-5.817 12.994-12.994 12.994h-.012C6.317 26.248.5 20.43.5 13.254v-.006c0-7.18 5.82-13 13-13s13 5.82 13 13v.006zm-9.558-1.161c.723.168 1.397.51 1.858 1.027.461.517.7 1.22.7 2.098 0 .64-.109 1.21-.342 1.695a3.47 3.47 0 01-.942 1.215c-.467.38-.98.674-1.538.835a7.647 7.647 0 01-2.13.285H9.5v-13h4.465c.911 0 1.6.043 2.07.115.47.072.91.23 1.32.462.445.248.775.58.995.996.22.416.325.896.325 1.439 0 .63-.16 1.19-.463 1.68a2.823 2.823 0 01-1.27 1.084v.069zM12.898 8.61h-.297v2.794h.472c.44 0 .77-.02.993-.034l.128-.008c.214-.011.435-.096.663-.206.25-.121.422-.29.517-.503a1.84 1.84 0 00.141-.745c0-.209-.051-.423-.154-.643a.952.952 0 00-.479-.478 1.912 1.912 0 00-.73-.156c-.28-.008-.698-.02-1.254-.02zm2.584 7.936c.283-.127.49-.313.621-.56.13-.245.196-.524.196-.836 0-.399-.078-.711-.233-.937-.156-.225-.39-.397-.7-.512-.19-.075-.45-.12-.78-.13a52.47 52.47 0 00-1.33-.018h-.655v3.33h.247c.593 0 1.052-.026 1.378-.044.12-.007.222-.013.306-.016.311-.012.628-.133.95-.277z" fill="#23B6F5"/></svg>