<svg width="27" height="27" viewBox="0 0 27 27" fill="none" xmlns="http://www.w3.org/2000/svg">
<path fill-rule="evenodd" clip-rule="evenodd" d="M13.5 0.247681C6.3203 0.247681 0.5 6.06798 0.5 13.2477C0.5 20.4274 6.3203 26.2477 13.5 26.2477C20.6797 26.2477 26.5 20.4274 26.5 13.2477C26.5 6.06798 20.6797 0.247681 13.5 0.247681ZM10.641 6.35621C11.3806 6.32255 11.6169 6.31432 13.4999 6.31432H13.4977C15.3813 6.31432 15.6168 6.32255 16.3563 6.35621C17.0944 6.39001 17.5986 6.50687 18.0406 6.67832C18.497 6.85527 18.8827 7.09216 19.2684 7.47783C19.654 7.86321 19.8909 8.25004 20.0686 8.70606C20.239 9.14691 20.356 9.65073 20.3907 10.3889C20.4239 11.1284 20.4326 11.3647 20.4326 13.2477C20.4326 15.1307 20.4239 15.3665 20.3907 16.106C20.356 16.8439 20.239 17.3478 20.0686 17.7888C19.8909 18.2447 19.654 18.6315 19.2684 19.0169C18.8831 19.4026 18.4969 19.64 18.041 19.8171C17.5999 19.9886 17.0955 20.1054 16.3573 20.1392C15.6178 20.1729 15.3822 20.1811 13.499 20.1811C11.6162 20.1811 11.38 20.1729 10.6404 20.1392C9.90248 20.1054 9.3985 19.9886 8.95737 19.8171C8.50164 19.64 8.11481 19.4026 7.72957 19.0169C7.34405 18.6315 7.10716 18.2447 6.92992 17.7887C6.75861 17.3478 6.64175 16.844 6.60781 16.1059C6.5743 15.3663 6.56592 15.1307 6.56592 13.2477C6.56592 11.3647 6.57458 11.1283 6.60766 10.3887C6.64089 9.65088 6.75789 9.14691 6.92978 8.70591C7.10745 8.25004 7.34434 7.86321 7.73001 7.47783C8.11539 7.09231 8.50222 6.85542 8.95823 6.67832C9.39908 6.50687 9.90291 6.39001 10.641 6.35621Z" fill="#23B6F5"/>
<path fill-rule="evenodd" clip-rule="evenodd" d="M12.8786 7.56387C12.9994 7.56368 13.1293 7.56374 13.2695 7.5638L13.5006 7.56387C15.3518 7.56387 15.5712 7.57051 16.3023 7.60373C16.9783 7.63465 17.3452 7.7476 17.5896 7.8425C17.9131 7.96817 18.1438 8.1184 18.3863 8.36106C18.629 8.60373 18.7792 8.83485 18.9052 9.15841C19.0001 9.40252 19.1132 9.76941 19.144 10.4454C19.1772 11.1763 19.1844 11.3959 19.1844 13.2462C19.1844 15.0966 19.1772 15.3161 19.144 16.047C19.113 16.723 19.0001 17.0899 18.9052 17.334C18.7795 17.6576 18.629 17.888 18.3863 18.1305C18.1437 18.3732 17.9133 18.5234 17.5896 18.6491C17.3455 18.7444 16.9783 18.8571 16.3023 18.888C15.5714 18.9212 15.3518 18.9284 13.5006 18.9284C11.6492 18.9284 11.4298 18.9212 10.6989 18.888C10.0229 18.8568 9.65603 18.7438 9.41148 18.6489C9.08792 18.5233 8.85681 18.373 8.61414 18.1304C8.37147 17.8877 8.22124 17.6572 8.09529 17.3335C8.00039 17.0894 7.88728 16.7225 7.85652 16.0465C7.82329 15.3156 7.81665 15.096 7.81665 13.2445C7.81665 11.393 7.82329 11.1746 7.85652 10.4437C7.88743 9.76768 8.00039 9.40079 8.09529 9.15638C8.22095 8.83282 8.37147 8.60171 8.61414 8.35904C8.85681 8.11637 9.08792 7.96615 9.41148 7.84019C9.65588 7.74486 10.0229 7.63219 10.6989 7.60113C11.3385 7.57225 11.5864 7.56358 12.8786 7.56213V7.56387ZM17.1994 8.71477C16.7401 8.71477 16.3674 9.087 16.3674 9.54649C16.3674 10.0058 16.7401 10.3785 17.1994 10.3785C17.6588 10.3785 18.0315 10.0058 18.0315 9.54649C18.0315 9.08715 17.6588 8.71448 17.1994 8.71448V8.71477ZM9.94165 13.2477C9.94165 11.2814 11.5358 9.68721 13.5021 9.68713C15.4684 9.68713 17.0623 11.2814 17.0623 13.2477C17.0623 15.2141 15.4686 16.8076 13.5022 16.8076C11.5359 16.8076 9.94165 15.2141 9.94165 13.2477Z" fill="#23B6F5"/>
<path d="M13.4986 10.9362C14.775 10.9362 15.8098 11.9708 15.8098 13.2473C15.8098 14.5236 14.775 15.5584 13.4986 15.5584C12.2222 15.5584 11.1875 14.5236 11.1875 13.2473C11.1875 11.9708 12.2222 10.9362 13.4986 10.9362Z" fill="#23B6F5"/>
</svg>
