<svg width="25" height="24" viewBox="0 0 25 24" fill="none" xmlns="http://www.w3.org/2000/svg">
<path d="M19.0085 23.7183H5.98903C4.59807 23.7183 3.29029 23.1765 2.3066 22.1929C1.32296 21.2093 0.78125 19.9015 0.78125 18.5104V17.2084C0.78125 16.4894 1.36412 15.9064 2.08321 15.9064C2.80229 15.9064 3.38516 16.4894 3.38516 17.2084V18.5104C3.38516 19.206 3.65604 19.8598 4.14777 20.3516C4.63963 20.8434 5.2935 21.1144 5.98903 21.1144H19.0085C19.704 21.1144 20.3578 20.8434 20.8497 20.3516C21.3415 19.8597 21.6124 19.2059 21.6124 18.5104V17.2084C21.6124 16.4894 22.1953 15.9064 22.9143 15.9064C23.6333 15.9064 24.2163 16.4894 24.2163 17.2084V18.5104C24.2163 19.9014 23.6746 21.2091 22.6909 22.1929C21.7072 23.1765 20.3994 23.7183 19.0085 23.7183ZM12.4988 18.5104C12.1588 18.5108 11.8322 18.3779 11.5892 18.1401L11.5892 18.14L11.5866 18.1375L11.5858 18.1367C11.5851 18.1361 11.5845 18.1354 11.5838 18.1347L11.5825 18.1334C11.582 18.1329 11.5815 18.1325 11.581 18.132L11.5782 18.1292L6.37038 12.9213C5.86195 12.4129 5.86195 11.5885 6.37038 11.0801C6.8788 10.5716 7.70321 10.5716 8.21163 11.0801L11.1968 14.0653V1.58516C11.1968 0.866075 11.7797 0.283203 12.4988 0.283203C13.2178 0.283203 13.8008 0.866075 13.8008 1.58516V14.0652L16.7859 11.0801C17.2943 10.5716 18.1188 10.5716 18.6272 11.0801C19.1356 11.5885 19.1356 12.4129 18.6272 12.9213L13.4194 18.1291L13.4165 18.1319L13.4151 18.1333L13.4138 18.1346C13.4131 18.1354 13.4124 18.136 13.4118 18.1366L13.411 18.1374C13.4102 18.1382 13.4093 18.1391 13.4084 18.1399L13.4084 18.14C13.394 18.154 13.3795 18.1675 13.3647 18.1807C13.2584 18.2757 13.1372 18.3524 13.0059 18.4079L13.0046 18.4084C13.0041 18.4086 13.0037 18.4089 13.0032 18.409C12.8435 18.4762 12.672 18.5106 12.4988 18.5104Z" fill="#23B6F5"/>
</svg>
