<svg width="17" height="16" viewBox="0 0 17 16" fill="none" xmlns="http://www.w3.org/2000/svg">
<path fill-rule="evenodd" clip-rule="evenodd" d="M0.855763 11.7532C1.25704 11.5353 3.20399 10.5184 3.56068 10.3731C3.93224 10.2278 4.19976 10.1406 4.48214 10.5329C4.76452 10.9106 5.56708 11.7823 5.81974 12.0293C6.05753 12.2908 6.29533 12.3053 6.69661 12.1019C7.09789 11.884 8.37604 11.4191 9.86226 10.0244C11.0215 8.93481 11.7943 7.61276 12.0024 7.20598C12.2253 6.79919 12.0024 6.5958 11.7943 6.40693C11.616 6.2326 11.3782 5.95656 11.1701 5.73864C10.9621 5.52072 10.8877 5.36091 10.7391 5.09941C10.5905 4.8379 10.65 4.60546 10.7391 4.40206C10.8432 4.19867 11.5714 2.23739 11.8835 1.42382C12.1808 0.624779 12.5226 0.741003 12.7604 0.741003C12.9982 0.726475 13.2657 0.68289 13.5332 0.68289C13.8007 0.668362 14.2466 0.75553 14.633 1.13326C15.0194 1.51099 16.0895 2.42625 16.1638 4.37301C16.2381 6.30524 14.8708 8.23746 14.6776 8.5135C14.4844 8.775 12.047 12.9881 8.00448 14.717C3.96196 16.4458 3.9471 15.9228 3.20399 15.8792C2.46088 15.8502 0.781454 15.0221 0.4099 14.1068C0.0383453 13.2061 0.0086174 12.407 0.0977917 12.2472C0.186965 12.0729 0.454484 11.9712 0.855763 11.7532Z" fill="#4DC0FF"/>
</svg>
