<svg width="13" height="13" viewBox="0 0 13 13" fill="none" xmlns="http://www.w3.org/2000/svg">
<path d="M12.5177 11.3078L10.3875 9.19309C12.0508 7.06355 11.8758 4.03068 9.96392 2.1199C8.95723 1.11385 7.61414 0.55957 6.18461 0.55957C4.75438 0.55957 3.41193 1.11388 2.4053 2.1199C1.39862 3.12596 0.843994 4.4682 0.843994 5.89684C0.843994 7.32618 1.39865 8.66778 2.4053 9.67378C3.41199 10.6798 4.75508 11.2341 6.18461 11.2341C7.36688 11.2341 8.53438 10.8405 9.46805 10.0964L11.584 12.2407C11.7151 12.3717 11.8759 12.4304 12.0509 12.4304C12.2259 12.4304 12.3867 12.3575 12.5178 12.2407C12.7805 11.9929 12.7805 11.5704 12.5177 11.3078ZM10.2125 5.89684C10.2125 6.97582 9.78951 7.98248 9.03021 8.7407C8.27149 9.49895 7.25 9.92223 6.18457 9.92223C5.11913 9.92223 4.09762 9.49953 3.33892 8.7407C2.5802 7.98246 2.15665 6.96161 2.15665 5.89684C2.15665 4.81787 2.57962 3.8112 3.33892 3.05298C4.09764 2.29473 5.11913 1.87145 6.18457 1.87145C7.26422 1.87145 8.27152 2.29415 9.03021 3.05298C9.78893 3.81179 10.2125 4.81792 10.2125 5.89684Z" fill="#23B6F5"/>
</svg>
