<svg width="32" height="32" viewBox="0 0 32 32" fill="none" xmlns="http://www.w3.org/2000/svg">
<circle cx="16" cy="16" r="16" fill="white"/>
<path d="M21.5947 9.11442L6.62855 14.7828C5.81029 15.0204 5.83668 15.8254 6.44378 16.0234L10.1919 17.1914L11.6305 21.5928C11.802 22.0745 11.9472 22.2527 12.2442 22.2593C12.5543 22.2659 12.6731 22.1471 13.003 21.8634C13.3792 21.507 13.9599 20.9395 14.8771 20.0487L18.777 22.9324C19.4963 23.3283 20.0176 23.1237 20.1958 22.2659L22.6373 10.1702C22.9013 9.11442 22.281 8.80427 21.5947 9.11442ZM11.3321 16.4068L19.3049 11.5758C19.7272 11.292 19.8592 11.6088 19.6678 11.8265L12.5774 18.0672V20.5577L11.3321 16.4068Z" fill="#23B6F5"/>
</svg>
