<svg width="18" height="15" viewBox="0 0 18 15" fill="none" xmlns="http://www.w3.org/2000/svg">
<path d="M16.1452 0.260168L1.17908 5.92857C0.360827 6.16613 0.387221 6.97118 0.994314 7.16915L4.74245 8.33714L6.181 12.7386C6.35257 13.2203 6.49774 13.3984 6.79469 13.405C7.10484 13.4116 7.22362 13.2929 7.55356 13.0091C7.92969 12.6528 8.51039 12.0853 9.42763 11.1944L13.3275 14.0781C14.0468 14.4741 14.5681 14.2695 14.7463 13.4116L17.1879 1.31598C17.4518 0.260168 16.8315 -0.0499771 16.1452 0.260168ZM5.88269 7.55255L13.8554 2.72153C14.2778 2.43778 14.4097 2.75453 14.2184 2.97229L7.12796 9.21292V11.7035L5.88269 7.55255Z" fill="#23B6F5"/>
</svg>
