<svg width="27" height="27" viewBox="0 0 27 27" fill="none" xmlns="http://www.w3.org/2000/svg">
<path fill-rule="evenodd" clip-rule="evenodd" d="M26.5 13.2539C26.5 20.4302 20.6825 26.2477 13.5062 26.2477H13.4938C6.31746 26.2477 0.5 20.4302 0.5 13.2539V13.2477C0.5 6.06799 6.32032 0.247681 13.5 0.247681C20.6797 0.247681 26.5 6.06799 26.5 13.2477V13.2539ZM16.9415 12.0929C17.6648 12.2606 18.3387 12.603 18.8001 13.1198C19.2613 13.6368 19.5 14.3397 19.5 15.2178C19.5 15.8589 19.3914 16.4273 19.1582 16.9127C18.9247 17.3978 18.6106 17.81 18.2161 18.1277C17.7494 18.5087 17.2368 18.8015 16.6783 18.9632C16.1197 19.1249 15.4099 19.2477 14.5484 19.2477H9.5V6.24768H13.9649C14.8763 6.24768 15.5657 6.29051 16.0356 6.36292C16.505 6.43508 16.9442 6.59367 17.3554 6.82468C17.8001 7.07308 18.13 7.40531 18.3497 7.82113C18.5692 8.23694 18.6748 8.7166 18.6748 9.2596C18.6748 9.88929 18.5152 10.4497 18.2124 10.9405C17.9092 11.4316 17.4583 11.7929 16.9415 12.0236V12.0929ZM12.898 8.61148H12.6006V11.4049H13.073C13.5123 11.4049 13.843 11.3844 14.0657 11.3707C14.1135 11.3678 14.1563 11.3651 14.1941 11.3631C14.4081 11.3516 14.6288 11.2668 14.8571 11.1567C15.107 11.0355 15.2793 10.8678 15.3737 10.6539C15.4683 10.4403 15.5155 10.1914 15.5155 9.9085C15.5155 9.70033 15.464 9.48568 15.3612 9.26609C15.2583 9.04676 15.0985 8.88609 14.882 8.78772C14.6763 8.69532 14.4331 8.64081 14.1527 8.63225C13.8718 8.62368 13.4536 8.61148 12.898 8.61148ZM15.482 16.547C15.7654 16.4198 15.9724 16.2337 16.1032 15.9879C16.2336 15.7423 16.299 15.4628 16.299 15.1511C16.299 14.7524 16.2211 14.4396 16.0655 14.2143C15.91 13.989 15.6765 13.8172 15.3654 13.7017C15.1764 13.6267 14.9165 13.5815 14.5859 13.5729C14.2553 13.5641 13.8121 13.5535 13.2566 13.5535H12.6006V16.8841H12.8481C13.4409 16.8841 13.9003 16.8581 14.2262 16.8396C14.3462 16.8328 14.4481 16.827 14.532 16.8239C14.8431 16.8122 15.1597 16.6913 15.482 16.547Z" fill="#23B6F5"/>
</svg>
