<svg width="16" height="17" viewBox="0 0 16 17" fill="none" xmlns="http://www.w3.org/2000/svg">
<path d="M13.531 1.67581C12.9386 1.16888 12.2437 0.861301 11.5032 0.667642C9.6293 0.177798 7.73828 0.0581847 5.81877 0.320194C4.85047 0.451199 3.91066 0.707513 3.05058 1.19166C2.03672 1.76125 1.33613 2.57575 1.02855 3.71493C0.812109 4.52374 0.703887 5.34964 0.664016 6.18123C0.601362 7.41724 0.641233 8.64185 0.954505 9.84367C1.31904 11.2335 2.11646 12.2587 3.47208 12.8055C3.62017 12.8625 3.76256 12.9479 3.91066 13.0049C4.04736 13.0618 4.08723 13.153 4.08723 13.3011C4.08153 14.2637 4.08153 15.2263 4.08153 16.2287C4.44037 15.887 4.68529 15.6307 4.86756 15.4313C5.40297 14.8276 5.9099 14.3206 6.4681 13.7453C6.7472 13.4548 6.63328 13.4662 7.07186 13.4776C7.58449 13.4833 8.39899 13.5061 8.91162 13.4662C9.89131 13.3865 10.8653 13.2612 11.8108 12.9764C13.0069 12.6176 13.9695 11.9739 14.4594 10.7607C14.5904 10.436 14.71 10.1171 14.7954 9.77532C15.2625 7.84443 15.1999 5.90783 14.8068 3.97694C14.6246 3.07699 14.2429 2.27957 13.531 1.67581ZM7.5617 2.84346C7.5731 2.6555 7.68132 2.58715 7.85789 2.59284C9.34451 2.66689 10.4666 3.11117 11.3324 4.27312C11.8393 4.95093 12.1127 5.87366 12.1355 6.72804C12.1355 6.85335 12.1412 6.97866 12.1355 7.10396C12.1298 7.24636 12.0671 7.35458 11.9076 7.35458C11.7482 7.36028 11.6684 7.26915 11.657 7.10966C11.6172 6.47742 11.4918 5.86796 11.2526 5.28129C10.7856 4.14781 9.89701 3.53836 8.74644 3.24217C8.44456 3.16243 8.13699 3.09977 7.82371 3.0713C7.68132 3.0599 7.55601 3.03142 7.5617 2.84346ZM9.06541 4.42691C8.76353 4.31869 8.45595 4.23895 8.13699 4.18768C7.9832 4.1649 7.87498 4.08516 7.90346 3.90289C7.93194 3.73771 8.04016 3.66936 8.20534 3.68075C9.24198 3.78328 10.0565 4.1592 10.6147 5.06485C10.8767 5.48634 11.0305 6.07871 11.0077 6.52868C10.9906 6.84765 10.945 6.92739 10.7628 6.9217C10.5008 6.916 10.5349 6.69956 10.5179 6.54007C10.4837 6.29515 10.4324 6.05023 10.3641 5.8167C10.1761 5.1275 9.74322 4.66614 9.06541 4.42691ZM9.94827 6.18123C9.93688 6.27237 9.93688 6.32933 9.92549 6.38629C9.89701 6.5059 9.82296 6.57425 9.69765 6.57425C9.57234 6.57995 9.50399 6.5059 9.46982 6.39198C9.44703 6.31794 9.44134 6.23819 9.42425 6.15845C9.34451 5.73696 9.10528 5.46356 8.68379 5.34964C8.63253 5.33825 8.58126 5.33255 8.53 5.31546C8.39899 5.28129 8.23382 5.27559 8.22812 5.08193C8.22812 4.92245 8.34773 4.83132 8.56418 4.81423C8.71227 4.80853 8.9458 4.88258 9.0768 4.94523C9.62361 5.21294 9.87992 5.58887 9.94827 6.18123ZM12.1412 10.6012C11.8507 11.2562 11.3551 11.6891 10.6659 11.8828C10.4153 11.9511 10.1704 11.8942 9.94257 11.7974C6.78707 10.4531 4.50872 8.23744 3.21576 5.03637C3.12463 4.80853 3.06767 4.56931 3.07906 4.34717C3.07906 3.52127 3.80244 2.76372 4.59416 2.71815C4.8106 2.70676 4.99857 2.78081 5.15805 2.9289C5.71625 3.44722 6.16622 4.05668 6.49088 4.74588C6.66745 5.11611 6.59341 5.37812 6.27444 5.64582C6.22318 5.69139 6.16622 5.73126 6.11495 5.76544C5.68777 6.07871 5.59663 6.39768 5.79599 6.88183C6.13204 7.68494 6.67315 8.31718 7.40222 8.78424C7.68132 8.95512 7.96041 9.12599 8.27938 9.21713C8.56987 9.30257 8.8034 9.21143 8.99137 8.9836C9.00845 8.95512 9.03124 8.92664 9.04832 8.90386C9.45843 8.33997 9.89131 8.24314 10.4837 8.60767C10.9849 8.92094 11.4634 9.27978 11.919 9.66141C12.2209 9.92342 12.3007 10.231 12.1412 10.6012Z" fill="#00E741"/>
</svg>
